<?xml version="1.0" standalone="no"?>
<!DOCTYPE svg PUBLIC "-//W3C//DTD SVG 20010904//EN"
 "http://www.w3.org/TR/2001/REC-SVG-20010904/DTD/svg10.dtd">
<svg version="1.0" xmlns="http://www.w3.org/2000/svg"
 width="512.000000pt" height="512.000000pt" viewBox="0 0 512.000000 512.000000"
 preserveAspectRatio="xMidYMid meet">
<metadata>
Created by potrace 1.15, written by Peter Selinger 2001-2017
</metadata>
<g transform="translate(0.000000,512.000000) scale(0.100000,-0.100000)"
fill="#000000" stroke="none">
<path d="M1100 5113 c-289 -30 -502 -108 -680 -250 -172 -138 -310 -347 -364
-553 -56 -211 -56 -209 -56 -1750 0 -1541 0 -1539 56 -1750 54 -206 192 -415
364 -553 153 -122 320 -193 550 -233 99 -18 189 -19 1590 -19 1401 0 1491 1
1590 19 230 40 397 111 550 233 172 138 310 347 364 553 56 211 56 209 56
1750 0 1541 0 1539 -56 1750 -37 143 -120 295 -227 422 -121 141 -323 272
-502 322 -222 63 -119 60 -1730 61 -808 1 -1486 0 -1505 -2z m616 -383 c113
-49 139 -202 50 -289 l-35 -34 25 -37 c26 -38 88 -255 78 -271 -3 -5 -27 -9
-54 -9 l-49 0 -20 68 c-10 37 -24 87 -31 111 -6 24 -22 54 -36 68 -20 20 -32
24 -76 21 l-52 -3 3 -102 c1 -57 0 -117 -4 -133 -7 -30 -8 -31 -58 -28 l-52 3
-3 322 -2 322 42 5 c122 16 215 12 274 -14z m600 -169 c62 -28 103 -97 108
-182 5 -83 13 -79 -160 -79 -132 0 -154 -2 -154 -15 0 -29 30 -75 60 -90 34
-18 123 -20 169 -4 38 14 47 7 56 -42 7 -36 6 -37 -32 -50 -21 -8 -77 -14
-124 -14 -78 0 -90 3 -135 30 -149 91 -138 368 19 444 54 26 138 27 193 2z
m379 5 c39 -17 40 -19 24 -65 -10 -29 -15 -32 -38 -27 -77 19 -106 18 -124 -2
-30 -33 -14 -57 59 -88 37 -16 77 -42 94 -61 l30 -34 0 39 c0 98 58 198 134
233 55 25 131 24 179 -1 31 -17 37 -17 37 -5 0 11 12 15 50 15 l50 0 0 -238
c0 -280 -7 -319 -69 -375 -22 -20 -59 -41 -82 -47 -82 -22 -222 -8 -250 26 -8
10 -7 23 1 50 10 29 16 35 34 31 129 -30 133 -31 171 -16 45 17 72 50 81 102
l6 38 -33 -20 c-77 -45 -162 -35 -230 26 -22 20 -46 50 -53 67 l-13 31 -8 -38
c-20 -102 -140 -151 -273 -112 -55 17 -59 23 -41 74 12 35 17 36 79 17 75 -22
120 -6 120 44 0 25 -9 32 -77 66 -117 58 -144 111 -104 200 33 73 155 108 246
70z m853 -1 c96 -41 148 -135 140 -256 -9 -119 -86 -208 -194 -225 -150 -22
-262 72 -272 230 -10 157 85 264 236 266 29 0 69 -7 90 -15z m-1583 -235 l0
-235 -51 -3 c-49 -3 -52 -2 -57 25 -8 41 -9 378 -1 419 l6 35 52 -3 51 -3 0
-235z m124 -441 c91 -21 222 -78 296 -129 25 -17 74 -58 109 -90 l63 -59 44
45 c24 25 71 65 104 89 349 250 811 217 1091 -76 100 -105 159 -212 200 -359
28 -101 26 -318 -4 -430 -52 -190 -170 -397 -345 -605 -111 -131 -444 -458
-682 -669 -104 -93 -240 -219 -302 -279 l-112 -111 -138 136 c-76 74 -230 218
-343 319 -594 533 -864 873 -952 1199 -30 113 -33 349 -5 450 43 156 151 323
267 414 207 162 449 216 709 155z m-455 -2829 l26 -10 0 -304 0 -304 -34 -6
c-39 -7 -66 1 -66 19 0 9 -10 7 -37 -7 -55 -28 -148 -22 -195 14 -99 76 -109
266 -20 362 15 16 41 35 59 42 42 18 121 18 156 0 l27 -15 0 100 c0 94 1 100
23 109 29 12 31 12 61 0z m2524 4 l22 -4 0 -310 c0 -171 -3 -310 -7 -311 -11
-2 -66 -2 -80 0 -10 1 -13 70 -13 310 0 239 3 310 13 314 18 6 39 6 65 1z
m-3529 -195 c35 -12 35 -14 20 -57 l-11 -31 -67 6 c-55 5 -74 2 -99 -12 -80
-48 -82 -191 -3 -238 30 -18 70 -21 134 -11 33 6 37 10 37 36 0 48 29 97 74
123 36 21 63 29 141 39 29 4 31 41 3 60 -29 20 -67 20 -118 0 -47 -19 -60 -12
-63 31 -3 38 36 58 124 63 82 5 129 -14 161 -67 21 -33 23 -50 26 -203 3 -135
1 -168 -10 -169 -7 0 -26 -2 -42 -4 -21 -3 -29 1 -33 15 -5 18 -6 18 -36 -1
-61 -37 -163 -20 -203 33 l-16 23 5 -23 c5 -20 0 -26 -28 -38 -19 -8 -63 -14
-97 -14 -137 1 -221 84 -221 220 0 95 48 174 128 211 46 21 144 25 194 8z
m479 5 c13 -4 22 -14 22 -26 0 -18 2 -18 31 6 22 18 42 26 70 26 l40 0 -3 -47
c-3 -46 -4 -48 -38 -53 -20 -4 -42 -10 -49 -14 -29 -19 -41 -75 -41 -201 0
-69 -3 -125 -7 -126 -42 -5 -74 -4 -82 1 -6 3 -11 89 -11 214 -2 235 -1 238
68 220z m704 -17 c10 -16 10 -389 0 -404 -9 -14 -68 -24 -89 -16 -18 7 -19
413 0 432 14 14 78 6 89 -12z m325 12 c50 -18 103 -79 119 -138 31 -104 -3
-208 -84 -266 -40 -27 -51 -30 -122 -30 -71 0 -82 3 -121 30 -55 39 -82 93
-87 173 -9 141 78 242 210 242 31 0 69 -5 85 -11z m258 -137 c27 -78 52 -142
55 -142 3 0 25 59 50 132 25 72 51 137 58 145 24 23 112 7 96 -18 -2 -5 15 0
38 11 63 29 164 27 209 -3 57 -38 67 -72 71 -250 3 -166 1 -176 -42 -172 -8 1
-23 3 -32 3 -10 1 -18 9 -18 17 0 12 -6 11 -32 -5 -40 -24 -117 -26 -158 -5
-68 35 -84 147 -30 209 33 36 94 62 164 68 49 5 55 20 22 53 -29 29 -61 31
-121 10 -36 -13 -41 -13 -52 2 -7 9 -13 23 -13 30 0 38 -22 -6 -89 -180 -41
-106 -76 -194 -77 -198 -2 -3 -24 -3 -50 0 l-48 6 -78 205 c-43 113 -78 206
-78 208 0 7 46 18 74 17 31 -1 31 -3 81 -143z m855 133 c17 -9 30 -17 30 -19
0 -2 -5 -17 -11 -35 -12 -35 -16 -36 -70 -19 -50 14 -89 -1 -89 -35 0 -19 13
-30 73 -60 43 -22 79 -47 89 -64 l17 -28 1 55 c1 94 52 171 137 207 39 16 138
17 182 2 29 -10 32 -14 25 -43 -3 -17 -8 -34 -10 -38 -2 -3 -38 -4 -79 -1 -74
6 -74 6 -108 -28 -60 -60 -58 -161 6 -215 30 -25 35 -26 109 -21 69 6 78 4 78
-11 0 -9 3 -26 6 -38 4 -17 -1 -22 -34 -32 -55 -17 -146 -15 -190 3 -49 21
-81 52 -103 100 -18 38 -19 38 -19 12 0 -75 -68 -127 -164 -127 -48 0 -136 24
-136 36 0 3 7 21 15 40 10 24 20 34 29 31 65 -25 94 -29 122 -16 21 10 29 22
29 39 0 21 -12 31 -72 63 -80 42 -107 77 -105 136 3 73 64 121 155 121 32 0
71 -7 87 -15z m500 0 c6 -4 10 -62 10 -146 0 -173 10 -199 76 -199 19 0 41 9
58 25 26 24 26 25 26 169 0 103 4 147 12 152 17 11 81 5 89 -8 12 -20 10 -406
-2 -414 -7 -4 -27 -8 -45 -10 -25 -2 -35 2 -39 16 -5 17 -7 17 -42 -1 -49 -25
-128 -25 -169 0 -56 34 -68 77 -72 253 -4 158 -4 158 20 167 23 10 59 8 78 -4z
m731 -8 c59 -39 71 -78 75 -252 4 -161 3 -167 -41 -171 -32 -4 -55 6 -55 23 0
14 -3 14 -20 -2 -33 -30 -130 -33 -173 -6 -37 22 -69 83 -62 117 2 10 4 27 4
36 1 10 15 33 31 52 34 38 97 64 167 68 50 3 54 17 18 53 -27 28 -61 31 -119
10 -47 -16 -51 -15 -65 26 -10 29 -9 31 32 49 62 29 163 27 208 -3z m211 14
c3 -1 4 -11 1 -23 l-6 -23 27 24 c20 19 38 25 74 25 46 1 47 0 50 -32 4 -40
-12 -62 -43 -62 -71 0 -85 -34 -85 -200 0 -100 -3 -132 -13 -136 -26 -10 -72
-10 -84 -1 -17 13 -19 423 -2 429 10 3 59 3 81 -1z"/>
<path d="M1518 4564 c-2 -55 -2 -101 -1 -102 4 -9 109 -2 135 9 67 28 76 130
15 168 -11 8 -49 16 -83 19 l-63 5 -3 -99z"/>
<path d="M2162 4474 c-19 -13 -52 -63 -52 -79 0 -3 45 -5 100 -5 108 0 112 3
89 53 -20 45 -94 62 -137 31z"/>
<path d="M2945 4483 c-52 -13 -85 -70 -85 -148 0 -93 40 -145 112 -145 27 0
47 8 70 29 29 26 33 35 36 98 5 90 -14 138 -62 158 -37 16 -38 16 -71 8z"/>
<path d="M3399 4475 c-37 -20 -62 -79 -62 -146 0 -70 25 -117 74 -142 32 -15
41 -16 74 -5 69 23 98 92 83 193 -14 91 -96 140 -169 100z"/>
<path d="M1401 774 c-30 -21 -51 -73 -51 -124 0 -112 100 -171 171 -101 27 28
29 34 29 109 0 70 -3 82 -25 106 -29 31 -87 36 -124 10z"/>
<path d="M2020 793 c-57 -21 -90 -108 -70 -184 41 -153 210 -115 210 47 0 98
-67 164 -140 137z"/>
</g>
</svg>
