<?xml version="1.0" encoding="UTF-8" standalone="no"?>
<!-- Created with Inkscape (http://www.inkscape.org/) -->

<svg
   xmlns:dc="http://purl.org/dc/elements/1.1/"
   xmlns:cc="http://creativecommons.org/ns#"
   xmlns:rdf="http://www.w3.org/1999/02/22-rdf-syntax-ns#"
   xmlns:svg="http://www.w3.org/2000/svg"
   xmlns="http://www.w3.org/2000/svg"
   xmlns:sodipodi="http://sodipodi.sourceforge.net/DTD/sodipodi-0.dtd"
   xmlns:inkscape="http://www.inkscape.org/namespaces/inkscape"
   width="210mm"
   height="297mm"
   viewBox="0 0 210 297"
   version="1.1"
   id="svg8"
   inkscape:version="0.92.3 (2405546, 2018-03-11)"
   sodipodi:docname="esi.svg">
  <defs
     id="defs2" />
  <sodipodi:namedview
     id="base"
     pagecolor="#ffffff"
     bordercolor="#666666"
     borderopacity="1.0"
     inkscape:pageopacity="0.0"
     inkscape:pageshadow="2"
     inkscape:zoom="7.14052"
     inkscape:cx="295.12914"
     inkscape:cy="765.14661"
     inkscape:document-units="mm"
     inkscape:current-layer="layer1"
     showgrid="true"
     inkscape:window-width="1920"
     inkscape:window-height="1017"
     inkscape:window-x="-8"
     inkscape:window-y="-8"
     inkscape:window-maximized="1">
    <inkscape:grid
       type="xygrid"
       id="grid44" />
  </sodipodi:namedview>
  <metadata
     id="metadata5">
    <rdf:RDF>
      <cc:Work
         rdf:about="">
        <dc:format>image/svg+xml</dc:format>
        <dc:type
           rdf:resource="http://purl.org/dc/dcmitype/StillImage" />
        <dc:title></dc:title>
      </cc:Work>
    </rdf:RDF>
  </metadata>
  <g
     inkscape:label="Capa 1"
     inkscape:groupmode="layer"
     id="layer1">
    <g
       id="g48"
       transform="matrix(2.1182395,0,0,2.1182395,-61.675866,-122.68199)">
      <path
         style="fill:#c5c6c7;stroke-width:0.08466667"
         d="m 60.897172,109.59806 c -1.733549,-0.20265 -3.255178,-0.92662 -4.228622,-2.01193 -0.598257,-0.667 -1.148848,-1.82372 -1.365582,-2.8689 -0.240457,-1.15959 -0.184065,-2.78781 0.133736,-3.86139 0.581786,-1.96534 1.723218,-3.388446 3.318565,-4.137466 1.968113,-0.924035 4.355519,-0.849342 6.079089,0.190191 l 0.562054,0.338991 0.489604,-0.302201 c 1.480357,-0.913728 3.514765,-1.126626 5.644811,-0.59072 0.902984,0.227185 1.227909,0.380699 1.225421,0.578966 -0.0012,0.09845 -0.128108,0.674297 -0.28194,1.279664 -0.320075,1.259575 -0.240414,1.203545 -1.219139,0.857415 -1.480339,-0.52353 -2.940608,-0.41635 -3.375757,0.24777 -0.19238,0.29361 -0.178481,0.84503 0.02833,1.12398 0.233001,0.31427 0.642168,0.53117 2.027737,1.07492 1.377733,0.54067 2.025148,0.92907 2.581948,1.54898 0.216664,0.24122 0.435739,0.43859 0.486834,0.43859 0.06579,0 0.0929,-0.93744 0.0929,-3.21234 0,-2.112392 0.02986,-3.230774 0.0872,-3.266213 0.182755,-0.112949 1.878337,1.009786 2.710355,1.794673 0.395374,0.37297 0.671881,0.72507 0.843595,1.0742 l 0.255439,0.51934 -0.02213,4.4146 -0.02213,4.4146 -0.962014,-0.62365 c -1.097692,-0.71161 -0.916575,-0.71677 -1.99828,0.057 -0.384836,0.27527 -0.742979,0.50049 -0.795871,0.50049 -0.06503,0 -0.09617,-0.26042 -0.09617,-0.80433 0,-0.48421 -0.03398,-0.80433 -0.08537,-0.80433 -0.04696,0 -0.323181,0.24243 -0.613834,0.53874 -1.009844,1.0295 -2.269636,1.46968 -4.444294,1.55285 l -1.291166,0.0494 v -1.36683 -1.36682 l 0.867833,-5.1e-4 c 0.477308,-2.5e-4 1.009526,-0.0398 1.182705,-0.0879 0.966147,-0.26832 1.256452,-1.30794 0.546343,-1.95652 -0.150347,-0.13732 -0.65738,-0.39215 -1.157082,-0.58154 -1.255328,-0.47578 -2.371746,-1.04588 -2.818896,-1.43947 -0.658478,-0.57962 -0.806256,-0.42244 -0.439619,0.46759 0.115096,0.2794 0.209441,0.55515 0.209657,0.61278 3.39e-4,0.0809 -0.698099,0.10983 -3.068774,0.127 l -3.069167,0.0223 -0.02689,0.23388 c -0.03965,0.34489 0.339135,1.09658 0.756866,1.50197 0.739647,0.71781 1.838877,1.09708 3.185859,1.09923 l 0.783167,0.001 v 1.35467 1.35466 l -1.0795,-0.0111 c -0.593725,-0.006 -1.330745,-0.0405 -1.637822,-0.0764 z m 2.920298,-8.63709 c -0.01178,-0.63646 -0.375141,-1.43679 -0.828503,-1.82486 -0.936602,-0.801693 -2.531146,-0.66153 -3.372242,0.29642 -0.302988,0.34509 -0.647596,1.05847 -0.716547,1.48337 -0.09534,0.58748 -0.213087,0.56208 2.489658,0.53715 l 2.436325,-0.0225 z m 12.457971,-3.394041 c -0.715341,-0.441408 -1.606276,-0.764295 -2.556705,-0.926586 -0.692713,-0.118285 -0.790909,-0.185072 -0.790909,-0.537929 0,-0.488231 0.114969,-0.5511 1.207452,-0.660286 0.948423,-0.09479 2.439577,-0.01807 2.871699,0.147755 0.192354,0.07381 0.236537,0.30289 0.236537,1.226382 0,0.882657 -0.05181,1.190245 -0.198063,1.175964 -0.05278,-0.0052 -0.399282,-0.196539 -0.770011,-0.4253 z"
         id="path31"
         inkscape:connector-curvature="0" />
      <path
         style="fill:#cc0038;stroke-width:0.08466562"
         d="m 76.2,97.239621 c -0.71625,-0.421729 -1.456042,-0.682073 -2.377122,-0.836559 -0.61936,-0.103877 -0.630919,-0.110437 -0.65677,-0.372811 -0.0227,-0.230404 0.0064,-0.276083 0.211667,-0.332691 0.313083,-0.0863 2.857655,-0.0862 3.264814,1.4e-4 l 0.3175,0.0673 v 0.927477 c 0,0.510107 -0.02858,0.925767 -0.0635,0.923667 -0.03492,-0.002 -0.34839,-0.171546 -0.696589,-0.376561 z"
         id="path23"
         inkscape:connector-curvature="0" />
    </g>
  </g>
</svg>
